<?xml version="1.0" encoding="UTF-8"?>
<svg id="Layer_1" xmlns="http://www.w3.org/2000/svg" version="1.1" viewBox="0 0 62 30">
  <!-- Generator: Adobe Illustrator 30.0.0, SVG Export Plug-In . SVG Version: 2.1.1 Build 123)  -->
  <path d="M10.64,28.65l.84-4.48c-.6-.83-1.37-1.43-1.93-2.3-2.92-4.52-.83-9.07,1.94-12.96,1.63-2.29,3.47-4.57,5.25-6.75.23-.28.45-.57.7-.82l-.94,4.63c1.61,1.49,2.85,3.18,3.23,5.4.76,4.41-1.58,7.73-4.11,11-1.44,1.87-2.95,3.69-4.43,5.53-.19.24-.38.49-.55.74ZM12.93,17.53s-.09-.06-.13-.1c-1.04-1.28-.05-3.99,1.25-4.84.49-1.77,1.03-3.53,1.39-5.34-1.03.97-1.88,2.2-2.55,3.45-1.49,2.76-2.89,7.39-1.76,10.43.18.48.45.98.8,1.35.24-1.4.62-2.78.88-4.18.02-.11.14-.73.11-.78ZM12.53,22.81c.57-.5,1.03-1.06,1.47-1.68,1.67-2.33,2.78-5.19,3.14-8.05.24-1.86.31-4.13-1.07-5.57l-1.04,5.08c1.16,1.39.44,4.24-1.14,5.06l-1.37,5.16Z"/>
</svg>